<?xml version="1.0" standalone="no"?>
<!DOCTYPE svg PUBLIC "-//W3C//DTD SVG 20010904//EN"
 "http://www.w3.org/TR/2001/REC-SVG-20010904/DTD/svg10.dtd">
<svg version="1.0" xmlns="http://www.w3.org/2000/svg"
 width="220.000000pt" height="220.000000pt" viewBox="0 0 220.000000 220.000000"
 preserveAspectRatio="xMidYMid meet">
<metadata>
Created by potrace 1.11, written by Peter Selinger 2001-2013
</metadata>
<g transform="translate(0.000000,220.000000) scale(0.100000,-0.100000)"
fill="#000000" stroke="none">
<path d="M630 1890 c-25 -25 -27 -91 -4 -114 16 -16 45 -19 197 -17 l77 1 1
-32 c4 -139 0 -1129 -4 -1151 -18 -90 -77 -128 -204 -131 -97 -3 -120 -17
-118 -72 2 -51 14 -72 46 -79 43 -10 183 3 238 22 89 30 164 105 193 192 8 26
12 224 14 699 l2 663 -21 19 c-19 18 -36 20 -209 20 -175 0 -189 -1 -208 -20z"/>
<path d="M1224 1900 c-12 -4 -23 -14 -26 -22 -3 -7 -4 -308 -4 -668 2 -702 2
-701 54 -778 55 -83 146 -128 279 -138 132 -10 163 7 157 85 -4 53 -22 63
-117 67 -113 4 -154 23 -186 87 l-24 48 1 562 c0 309 1 574 1 590 l1 27 125
-1 c108 -2 128 1 145 16 27 25 27 88 0 115 -19 19 -33 20 -202 19 -101 0 -192
-4 -204 -9z"/>
<path d="M430 1260 c-112 -49 -210 -97 -217 -106 -17 -23 -16 -59 1 -77 19
-19 409 -187 434 -187 12 0 23 4 26 8 12 19 13 59 2 73 -6 8 -79 44 -163 79
-84 36 -149 68 -145 71 4 3 74 34 155 69 141 60 163 75 162 111 0 20 -24 49
-39 48 -6 0 -103 -40 -216 -89z"/>
<path d="M1640 1340 c-7 -4 -14 -22 -16 -39 -5 -39 4 -45 172 -117 71 -30 132
-59 137 -63 4 -4 -28 -22 -70 -41 -43 -18 -106 -46 -141 -62 -35 -15 -67 -28
-72 -28 -22 0 -36 -66 -18 -87 6 -7 19 -13 29 -13 22 0 409 167 427 184 18 17
22 62 8 81 -10 13 -391 183 -427 190 -9 2 -21 0 -29 -5z"/>
</g>
</svg>
